<?xml version="1.0" encoding="UTF-8"?>
<svg version="1.1" viewBox="0 0 600 600" xmlns="http://www.w3.org/2000/svg" xmlns:cc="http://creativecommons.org/ns#" xmlns:dc="http://purl.org/dc/elements/1.1/" xmlns:rdf="http://www.w3.org/1999/02/22-rdf-syntax-ns#">
<metadata>
<rdf:RDF>
<cc:Work rdf:about="">
<dc:format>image/svg+xml</dc:format>
<dc:type rdf:resource="http://purl.org/dc/dcmitype/StillImage"/>
<dc:title/>
</cc:Work>
</rdf:RDF>
</metadata>
<g transform="translate(-130.58 306.79)">
<g transform="matrix(6 0 0 6 5170.6 323.23)">
<circle cx="-790" cy="-55.002" r="50" fill="#cac5c0"/>
</g>
<path d="m369.56-196.85v305.04c0 36.294 15.095 54.42 45.216 54.42h7.6739v20.694h-162.49v-20.694h10.728c30.654 0 46.002-18.126 46.002-54.42v-200.04c0-36.798-13.038-55.17-39.108-55.17h-16.098v-20.694h6.1444c31.68 0 60.282-9.702 85.824-29.13l16.104-7e-3zm194.69 0v305.04c0 36.294 15.066 54.42 45.222 54.42h7.6682v20.694h-162.52v-20.694h10.728c30.69 0 46.002-18.126 46.002-54.42v-200.04c0-36.798-13.038-55.17-39.078-55.17h-16.092v-20.694h6.1142c31.679 0 60.282-9.702 85.86-29.13l16.092-7e-3z" fill="#0d0f0f"/>
</g>
</svg>
