<?xml version="1.0" encoding="UTF-8"?>
<svg version="1.1" viewBox="0 0 600 600" xmlns="http://www.w3.org/2000/svg" xmlns:cc="http://creativecommons.org/ns#" xmlns:dc="http://purl.org/dc/elements/1.1/" xmlns:rdf="http://www.w3.org/1999/02/22-rdf-syntax-ns#">
<metadata>
<rdf:RDF>
<cc:Work rdf:about="">
<dc:format>image/svg+xml</dc:format>
<dc:type rdf:resource="http://purl.org/dc/dcmitype/StillImage"/>
<dc:title/>
</cc:Work>
</rdf:RDF>
</metadata>
<g transform="translate(-204.86 26.786)">
<g transform="matrix(6 0 0 6 3354.9 603.23)">
<circle cx="-475" cy="-55.002" r="50" fill="#cac5c0"/>
</g>
<path d="m422.71 90.052v294.32c0 34.734 14.562 52.104 43.656 52.104h6.924v19.932h-156.37v-19.932h9.978c29.628 0 44.442-17.37 44.442-52.104v-193.15c0-35.274-12.54-52.896-37.554-52.896h-15.342v-19.92h6.138c30.126 0 57.474-9.444 81.99-28.35l16.14-0.0067zm258.28 262.12v30.654c0 34.242 11.976 51.366 36.018 51.366h9.948v19.896h-146.39v-19.896h11.508c24.018 0 36.024-16.878 36.024-50.58v-31.44h-147.17v-30.654l155.59-226.88h44.472v231.47h3.834c14.82 0 25.794-11.718 32.934-35.238h18.396l-9.198 61.314-45.972-7e-3zm-40.638-30.654v-193.13l-130.3 193.13h130.3z" fill="#0d0f0f"/>
</g>
</svg>
