<?xml version="1.0" encoding="UTF-8"?>
<svg version="1" viewBox="0 0 600 600" xmlns="http://www.w3.org/2000/svg" xmlns:cc="http://creativecommons.org/ns#" xmlns:dc="http://purl.org/dc/elements/1.1/" xmlns:rdf="http://www.w3.org/1999/02/22-rdf-syntax-ns#">
<metadata>
<rdf:RDF>
<cc:Work rdf:about="">
<dc:format>image/svg+xml</dc:format>
<dc:type rdf:resource="http://purl.org/dc/dcmitype/StillImage"/>
</cc:Work>
</rdf:RDF>
</metadata>
<circle cx="300" cy="300" r="300" fill="#cbc2bf"/>
<path d="m308 493c27 0 85-18 85-71 0-36-26-70-118-108-47 30-61 62-61 89 0 62 49 90 93 90m72-314c0-36-30-73-80-73-49 0-73 33-73 58 0 46 37 59 99 89 16-8 53.98-25.816 53.98-72.816zm-70 354c-91 0-162-51-162-125 0-73 86-115 86-115-21-13-76-45-76-106 0-99 99-124 150-124 108 0 138 88 138 111 0 50-45 85-75 98 0 0 84 33 84 129 0 87-83 132-145 132" fill="#130c0e"/>
</svg>
